<svg version="1.1" id="Layer_1" xmlns="http://www.w3.org/2000/svg" xmlns:xlink="http://www.w3.org/1999/xlink" x="0px" y="0px"
	 width="100%" viewBox="0 0 464 464" enable-background="new 0 0 464 464" xml:space="preserve">
<path fill="#000000" opacity="1.000000" stroke="none" 
	d="
M270.542664,61.461285 
	C279.565552,59.030521 280.557648,59.485405 283.688324,67.433174 
	C285.613678,72.321053 288.998352,74.808357 294.405182,74.666550 
	C303.195709,74.436020 304.118591,75.123466 305.461578,83.571823 
	C306.290466,88.786423 309.368805,91.381050 314.173798,92.535736 
	C321.482452,94.292053 323.686890,97.024750 322.054657,104.128639 
	C320.814636,109.525688 322.927307,112.315773 327.378265,114.371460 
	C336.429504,118.551826 337.123352,119.988136 333.520935,129.215576 
	C331.766144,133.710327 333.124054,136.897003 336.525604,139.739059 
	C343.696381,145.730392 344.030151,146.760468 339.180084,154.653870 
	C336.592072,158.865768 337.106781,162.298691 339.791870,166.125336 
	C344.398407,172.690414 344.272247,174.626190 338.539398,180.274017 
	C334.441803,184.310867 333.316986,188.370361 336.085968,193.669418 
	C337.932190,197.202560 338.305939,200.973312 333.180298,204.359924 
	C330.873749,193.913513 322.860962,186.932373 324.149170,174.626450 
	C329.786774,120.770767 294.102875,77.988594 246.522308,68.266708 
	C194.465546,57.630219 143.265549,92.375595 132.598068,144.595947 
	C124.079788,186.295364 143.556976,228.440704 181.081223,248.891190 
	C188.097565,252.715073 184.275284,258.327148 185.529510,264.076385 
	C180.590164,262.414459 176.469696,263.080780 172.256821,263.949799 
	C168.283478,264.769348 165.669556,262.018616 164.910843,258.647156 
	C163.343445,251.682175 159.711929,248.640167 152.361938,248.845505 
	C146.996506,248.995407 143.695770,245.242889 143.812027,239.773239 
	C143.934296,234.020554 140.807953,231.378769 136.169235,229.424225 
	C128.716003,226.283768 127.871208,224.837692 129.436676,216.865311 
	C130.440613,211.752579 128.016693,208.688583 124.102531,206.096375 
	C116.863976,201.302597 116.390190,200.241348 119.593513,192.234665 
	C121.550041,187.344315 120.584618,183.668167 116.899384,180.116135 
	C111.234818,174.656342 111.019501,172.146729 115.863678,166.043594 
	C119.164742,161.884598 119.255905,158.217575 116.144707,153.868607 
	C111.641495,147.573776 112.098709,145.363190 117.837952,140.339066 
	C123.224312,135.623856 123.564217,134.312515 121.080406,127.830315 
	C118.192848,120.294449 118.988380,117.982658 126.201370,115.012192 
	C130.789688,113.122635 132.879288,110.247414 132.754623,105.117638 
	C132.513855,95.211067 132.700134,95.091606 142.309830,92.797676 
	C146.222351,91.863724 148.549545,89.964020 148.829849,85.813515 
	C148.930115,84.328789 149.475983,82.874748 149.582703,81.389763 
	C149.925781,76.615364 152.596634,74.728317 157.180557,74.755440 
	C166.565903,74.810974 166.566208,74.760345 169.931122,65.765884 
	C171.936829,60.404594 174.375320,59.289650 179.923569,61.197048 
	C187.942810,63.953930 190.293121,63.094997 194.634003,55.821156 
	C197.566101,50.907967 201.223938,49.959911 206.398239,52.771996 
	C214.206146,57.015373 214.618332,56.957668 220.920181,50.738903 
	C225.320374,46.396744 228.983673,46.437988 233.381714,50.879230 
	C239.528549,57.086449 240.093842,57.159832 247.319016,52.688396 
	C252.767365,49.316608 255.991867,49.930962 259.375122,55.347855 
	C261.912567,59.410538 264.710205,62.677155 270.542664,61.461285 
z"/>
<path fill="#000000" opacity="1.000000" stroke="none" 
	d="
M225.000000,292.094299 
	C212.840210,292.102661 201.180222,292.148163 189.520844,292.082062 
	C187.528702,292.070770 184.721817,292.993164 184.203857,289.888458 
	C183.716492,286.967163 183.252136,283.364349 186.790680,282.089630 
	C190.514511,280.748138 190.735809,278.213806 190.815689,275.048035 
	C191.684845,240.601151 192.867874,206.162811 193.049973,171.698425 
	C193.083069,165.435257 192.270691,158.655823 198.043839,153.678802 
	C199.521194,152.405182 200.601624,151.486343 202.653900,151.501663 
	C218.310349,151.618362 233.970627,151.792725 249.623245,151.543137 
	C255.225067,151.453812 257.765045,155.444366 258.808685,159.068085 
	C259.946838,163.020020 261.375244,168.388306 255.957443,171.562439 
	C253.557892,172.968277 251.394424,174.777115 248.851120,176.598236 
	C246.925476,173.823517 247.902466,171.105072 247.637497,168.604889 
	C247.433044,166.675476 247.114426,164.622574 244.703751,164.805847 
	C242.687668,164.959122 242.071579,166.939056 242.386810,168.631989 
	C244.295013,178.879486 239.663574,186.927368 233.889450,194.624176 
	C233.035049,195.763046 232.743851,197.451065 230.904572,197.751526 
	C229.074783,196.418243 229.741409,194.428452 229.720322,192.722382 
	C229.623642,184.894653 229.660370,177.065384 229.629242,169.236725 
	C229.620438,167.020798 229.544159,164.277969 226.743057,164.316269 
	C224.183380,164.351273 224.364548,167.051758 224.326004,169.040787 
	C223.641998,204.347809 225.750198,239.627518 225.376892,274.932098 
	C225.355225,276.981354 225.571289,279.420990 228.256042,279.261017 
	C230.515900,279.126312 230.629959,276.826813 230.632874,274.946655 
	C230.648102,265.119141 230.608429,255.291306 230.684494,245.464340 
	C230.697830,243.744019 230.068268,241.856522 231.762665,239.761902 
	C235.778015,245.894379 240.253845,251.550232 243.568451,257.630768 
	C245.623535,261.400757 244.095657,267.076324 244.365707,271.885895 
	C244.512894,274.506927 243.168228,278.820190 246.930313,278.885254 
	C250.738770,278.951202 249.300110,274.610596 249.639053,272.034607 
	C249.999176,269.297699 249.045486,266.425812 250.608490,263.204407 
	C254.841690,265.233948 259.050781,267.077606 263.077301,269.258423 
	C264.991791,270.295349 264.401428,272.564575 264.299591,274.311523 
	C264.074890,278.165985 265.734283,280.967072 269.187195,282.169098 
	C273.366028,283.623779 272.324158,286.819611 272.081390,289.594360 
	C271.803955,292.765594 268.996399,292.082092 266.974640,292.089630 
	C253.149948,292.141205 239.324921,292.102997 225.000000,292.094299 
M210.835205,225.499207 
	C211.107758,207.205276 211.430206,188.911804 211.592545,170.616898 
	C211.613922,168.207825 212.871887,164.106216 209.252014,164.042328 
	C205.350830,163.973511 206.403198,168.153015 206.358719,170.772476 
	C206.093216,186.407806 206.669998,202.052505 205.823166,217.682495 
	C204.778290,236.967331 205.590225,256.267609 205.362747,275.559326 
	C205.358826,275.891174 205.373550,276.227783 205.425217,276.554962 
	C205.650482,277.981659 206.326401,279.229156 207.831451,279.333069 
	C209.708969,279.462646 210.381226,278.012421 210.550385,276.413055 
	C210.689865,275.094574 210.642136,273.754425 210.647186,272.423798 
	C210.705383,257.115479 210.757828,241.807175 210.835205,225.499207 
z"/>
<path fill="#000000" opacity="1.000000" stroke="none" 
	d="
M346.811920,271.185730 
	C353.553375,277.654236 360.139923,283.777893 366.485931,290.141449 
	C369.922363,293.587402 370.491699,299.811462 368.269836,304.060944 
	C365.822205,308.742218 361.704071,310.844940 356.305542,310.365173 
	C353.404449,310.107330 351.438751,308.452423 349.578735,306.481293 
	C340.097565,296.433472 330.584534,286.415680 321.127014,276.345703 
	C317.511139,272.495697 313.720795,268.901550 311.919891,263.545624 
	C310.527222,259.403900 307.353729,259.463776 303.410553,261.344513 
	C281.049896,272.009796 255.821136,265.969696 242.579468,246.515442 
	C231.410339,230.106140 230.224884,212.610336 239.917145,195.157288 
	C249.130981,178.565720 264.037811,170.594055 282.767609,170.793152 
	C308.531830,171.067017 329.933716,193.357605 329.201782,218.563492 
	C328.948212,227.294662 327.102997,235.795944 322.278809,243.229752 
	C320.000641,246.740234 320.528412,249.542053 323.777405,251.098541 
	C332.164703,255.116592 337.165070,262.864258 344.008759,268.548645 
	C344.903320,269.291626 345.709656,270.140808 346.811920,271.185730 
M246.373016,220.223495 
	C246.788879,222.338837 247.136703,224.470230 247.631348,226.566986 
	C251.691055,243.775406 270.619080,256.733521 288.899048,252.669250 
	C309.176239,248.160919 321.966766,223.653625 313.532806,204.846756 
	C307.436340,191.252365 290.763855,180.492935 274.731689,184.419083 
	C258.743408,188.334488 246.571274,202.806839 246.373016,220.223495 
z"/>
<path fill="#000000" opacity="1.000000" stroke="none" 
	d="
M281.842651,144.357422 
	C279.120178,151.983871 274.754333,155.391113 268.377777,155.407150 
	C264.463135,155.416992 261.545319,153.823395 259.922943,150.334229 
	C258.309021,146.863220 258.741821,143.526398 261.462219,140.626968 
	C262.116150,139.930023 262.640869,139.111877 263.294495,138.258804 
	C259.599640,137.325241 257.191803,138.244034 255.668259,142.251907 
	C254.314636,145.812820 252.147003,146.391586 248.819061,146.359833 
	C234.323318,146.221497 219.824936,146.205811 205.329178,146.335098 
	C201.688538,146.367569 199.139221,145.844009 197.559464,141.909927 
	C196.425049,139.084869 194.249054,136.120758 190.192337,137.280441 
	C189.628784,139.110245 190.810577,139.774887 191.629929,140.482895 
	C194.558853,143.013824 195.115616,146.153488 193.690277,149.510254 
	C192.227921,152.954254 189.514984,155.037247 185.628906,155.328400 
	C180.192810,155.735718 175.329742,152.841476 172.629181,147.735306 
	C169.392593,141.615662 170.903610,136.061050 174.791489,130.998184 
	C177.518494,127.447029 181.075134,125.516403 185.952316,125.548843 
	C212.445633,125.725090 238.940704,125.629761 265.435181,125.637123 
	C275.715790,125.639977 282.848816,133.559875 281.842651,144.357422 
z"/>
<path fill="#000000" opacity="1.000000" stroke="none" 
	d="
M187.265228,86.305359 
	C160.950607,101.085358 144.847687,123.085564 141.690002,152.659729 
	C137.905151,188.108063 150.611710,216.991913 180.836182,237.235428 
	C183.526749,239.037506 186.995895,240.506729 184.484344,244.848923 
	C151.449066,231.686310 126.117630,184.941467 138.903091,138.946823 
	C153.150757,87.691971 204.938293,60.209484 254.903198,75.152359 
	C309.137421,91.372055 325.588776,145.830597 318.287964,176.926971 
	C314.235687,176.405045 314.567413,173.379822 314.668457,170.587082 
	C315.167267,156.796661 313.608276,143.319641 308.259064,130.490875 
	C296.644592,102.636475 275.755920,85.389198 246.675049,78.497139 
	C226.243164,73.654854 206.336884,76.243614 187.265228,86.305359 
z"/>
<path fill="#000000" opacity="1.000000" stroke="none" 
	d="
M221.000000,310.180817 
	C206.523773,310.217346 192.547424,310.295288 178.571381,310.258636 
	C175.230133,310.249878 171.098312,311.186676 171.062668,305.604706 
	C171.023621,299.492279 173.411072,296.731171 179.137909,296.691559 
	C188.954117,296.623657 198.771103,296.661865 208.587753,296.661163 
	C231.049683,296.659576 253.511642,296.640533 275.973511,296.674255 
	C282.951752,296.684753 286.074951,301.115051 284.216705,307.937408 
	C283.443970,310.774445 281.258270,310.193848 279.401947,310.198639 
	C264.926636,310.236084 250.451096,310.194244 235.975632,310.180084 
	C231.150421,310.175354 226.325211,310.179932 221.000000,310.180817 
z"/>
<path fill="#000000" opacity="1.000000" stroke="none" 
	d="
M171.759308,113.047630 
	C172.735138,108.382401 175.570801,106.651749 179.750153,106.651970 
	C211.229401,106.653656 242.708694,106.616463 274.187866,106.665222 
	C279.000916,106.672676 282.098236,109.697052 282.046844,113.864311 
	C281.997681,117.854424 279.118378,120.350334 274.252289,120.354973 
	C242.773041,120.385002 211.293686,120.341095 179.814545,120.403786 
	C174.945663,120.413475 172.391998,118.146141 171.759308,113.047630 
z"/>
<path fill="#000000" opacity="1.000000" stroke="none" 
	d="
M389.857300,359.029999 
	C389.834717,355.705200 389.837982,352.873993 389.788910,350.043732 
	C389.756287,348.161774 389.530365,346.309998 387.499298,345.440735 
	C386.110840,344.846527 385.164978,343.967407 385.719116,342.404602 
	C386.183502,341.094879 387.500885,341.026947 388.680511,341.051697 
	C395.323120,341.191071 401.978607,340.422211 408.608307,341.658966 
	C413.875702,342.641541 417.477264,345.441528 418.891327,350.595428 
	C420.229919,355.474091 419.283661,359.964813 415.041870,363.099670 
	C412.863617,364.709412 412.167999,366.391357 413.735992,368.499817 
	C417.782166,373.940857 419.072174,381.748749 426.907776,383.981201 
	C427.828796,384.243622 428.121521,385.061005 427.966248,385.969543 
	C427.763367,387.156158 426.721100,387.426727 425.810120,387.786346 
	C421.630920,389.436066 416.158112,388.027710 412.820160,383.782990 
	C409.642761,379.742401 407.062317,375.235840 404.143341,370.986450 
	C403.246033,369.680145 402.990234,367.772400 401.057129,367.326141 
	C397.871277,371.893555 398.751251,381.000458 402.693909,383.756042 
	C403.435516,384.274353 404.039825,384.705933 403.972046,385.647491 
	C403.878906,386.940704 402.877167,387.285126 401.863373,387.294037 
	C397.203156,387.335114 392.530640,387.484955 387.886505,387.202148 
	C385.573303,387.061249 384.951233,385.136047 386.978729,383.927338 
	C389.881378,382.196899 389.826263,379.655884 389.849579,377.009796 
	C389.900909,371.181641 389.862610,365.352661 389.857300,359.029999 
M406.033112,347.342133 
	C400.417084,345.385925 399.475311,345.979645 399.364594,351.627411 
	C399.322266,353.785767 399.370453,355.945892 399.382202,358.105225 
	C399.400085,361.396301 401.418060,362.023407 404.078827,361.421448 
	C406.659576,360.837646 408.718048,359.316284 409.403015,356.688202 
	C410.300049,353.246460 409.743530,350.073151 406.033112,347.342133 
z"/>
<path fill="#000000" opacity="1.000000" stroke="none" 
	d="
M376.671570,348.485596 
	C382.746674,357.732239 382.179504,367.088379 378.066589,376.344025 
	C373.881439,385.762329 362.591705,390.412415 351.377533,387.864655 
	C340.337769,385.356537 333.837524,377.671082 333.631714,366.883148 
	C333.350098,352.121460 339.366791,342.827942 351.645996,340.247040 
	C361.200958,338.238739 369.803131,340.475861 376.671570,348.485596 
M343.940521,358.502808 
	C342.743011,363.990845 343.065643,369.383850 345.091614,374.628174 
	C347.114075,379.863525 350.775879,383.224274 356.530518,383.579773 
	C362.178192,383.928650 365.903320,380.881256 368.375488,376.060730 
	C371.579834,369.812378 371.390533,363.126251 370.067078,356.602844 
	C368.559937,349.173920 363.199677,344.456055 357.434845,344.419861 
	C351.539062,344.382843 346.594757,348.861145 344.414978,356.231720 
	C344.274658,356.706238 344.241608,357.212402 343.940521,358.502808 
z"/>
<path fill="#000000" opacity="1.000000" stroke="none" 
	d="
M111.766579,346.359802 
	C110.244270,345.003174 107.651199,345.260498 108.074852,342.001221 
	C112.923508,342.001221 117.842186,342.001221 122.704964,342.001221 
	C122.865608,342.621643 123.099670,343.150116 123.005814,343.216736 
	C117.297661,347.269348 118.390472,353.316986 118.370728,359.011566 
	C118.337372,368.632324 118.361588,378.253296 118.361588,387.736115 
	C114.465393,389.207123 113.072327,386.457855 111.451881,384.518799 
	C104.508301,376.209961 97.668762,367.814270 90.776939,359.462097 
	C89.425507,357.824310 88.272820,355.958588 85.733009,354.840149 
	C85.120911,362.674072 85.080231,370.261017 85.657936,377.819763 
	C85.835068,380.137329 86.308510,382.921173 89.405983,383.738556 
	C90.459007,384.016418 91.152008,384.747345 91.020790,385.929260 
	C90.874657,387.245422 89.819916,387.390503 88.805733,387.406097 
	C84.974564,387.465088 81.142693,387.498932 77.311104,387.497253 
	C76.292755,387.496796 75.248138,387.305023 75.021217,386.055573 
	C74.810982,384.898041 75.484238,384.097778 76.462509,383.707001 
	C80.289154,382.178558 80.697472,378.983459 80.683174,375.482147 
	C80.652557,367.984131 80.600891,360.484192 80.737961,352.988342 
	C80.798386,349.683807 79.956573,347.085754 76.830002,345.574799 
	C75.543091,344.952850 74.432083,344.118866 75.023094,342.518951 
	C75.528526,341.150696 76.859634,341.482635 78.022797,341.399841 
	C84.427025,340.944092 89.390846,342.422333 93.724792,348.120605 
	C99.208275,355.330292 105.074730,362.430542 112.739403,369.513763 
	C113.591766,361.126373 114.827797,353.881409 111.766579,346.359802 
z"/>
<path fill="#000000" opacity="1.000000" stroke="none" 
	d="
M232.455551,378.421814 
	C234.581345,376.627350 234.439163,371.807159 237.878021,373.411530 
	C240.927887,374.834442 238.692963,378.384796 238.481094,381.070587 
	C238.065018,386.345398 235.427551,387.845642 230.277023,387.522400 
	C222.651718,387.043884 214.974075,387.427124 207.319290,387.369354 
	C205.543411,387.355957 203.642456,387.830811 201.845261,386.424774 
	C201.927689,385.889771 201.874359,384.807495 202.140045,384.722473 
	C207.478317,383.014618 206.827164,378.634674 206.813553,374.520782 
	C206.787659,366.699402 206.758957,358.877960 206.761993,351.056549 
	C206.763123,348.152374 206.849365,345.267365 203.188904,344.294128 
	C202.061234,343.994324 201.563797,343.180023 201.914398,342.020325 
	C202.199783,341.076416 203.034027,340.812134 203.883469,340.806488 
	C213.531784,340.742218 223.180573,340.651764 232.828552,340.701172 
	C235.084610,340.712708 235.369995,342.658966 235.229401,344.355743 
	C235.033997,346.714050 236.493011,349.568481 234.025986,351.300354 
	C232.421021,352.427002 231.305939,350.907043 230.590836,349.496277 
	C228.202133,344.783844 223.961746,345.118256 219.754105,345.595612 
	C217.694351,345.829285 216.492584,347.183075 216.424377,349.319977 
	C216.355392,351.481415 216.367325,353.645599 216.357391,355.808624 
	C216.348007,357.847748 216.272018,360.009674 218.934006,360.495331 
	C221.296021,360.926300 223.579788,360.911987 225.117599,358.490326 
	C226.036575,357.043152 226.498657,354.441345 228.812515,355.190613 
	C231.270157,355.986420 230.214157,358.607574 230.300369,360.461975 
	C230.423660,363.113892 230.297714,365.783295 230.158279,368.438965 
	C230.093185,369.678711 229.416031,370.670166 228.089615,370.912537 
	C226.932220,371.124023 226.216675,370.374451 225.722061,369.470337 
	C224.713455,367.626709 223.452881,366.262573 221.151459,366.105377 
	C218.185135,365.902740 216.199921,366.685425 216.358322,370.130524 
	C216.388840,370.794586 216.248459,371.481689 216.369186,372.123901 
	C217.007828,375.520569 214.321304,380.356964 218.599716,382.054718 
	C223.359711,383.943695 228.479462,383.060089 232.455551,378.421814 
z"/>
<path fill="#000000" opacity="1.000000" stroke="none" 
	d="
M179.637939,369.515594 
	C175.571213,375.353516 176.591370,380.154846 182.180954,383.207916 
	C183.251770,383.792786 184.315811,384.347687 184.000870,385.783051 
	C183.679947,387.245819 182.386978,387.313538 181.230240,387.328247 
	C176.079483,387.393890 170.928085,387.422913 165.776886,387.425629 
	C164.642761,387.426239 163.318817,387.550781 162.935867,386.050415 
	C162.587387,384.685059 163.315292,383.757751 164.547714,383.368225 
	C167.260010,382.510986 167.930893,380.497528 167.917206,377.956512 
	C167.866241,368.486786 167.843567,359.016876 167.821213,349.547058 
	C167.816116,347.389587 167.305435,345.662476 164.895844,344.963562 
	C163.886948,344.670929 163.366577,343.666473 163.637863,342.550873 
	C163.912415,341.421753 164.833282,340.975189 165.895020,340.978607 
	C173.513504,341.002991 181.212387,340.219849 188.672623,342.301758 
	C194.738113,343.994476 197.518204,347.644653 198.073120,353.759705 
	C198.536499,358.866272 195.075470,364.814087 190.166031,367.144470 
	C186.973083,368.660065 183.527679,369.201843 179.637939,369.515594 
M178.945847,346.566895 
	C175.835907,351.780090 177.414444,357.367249 177.930817,362.773743 
	C178.110336,364.653229 180.313904,364.561249 182.074097,364.011139 
	C185.891235,362.818146 188.858902,358.510620 188.553513,354.439636 
	C188.185089,349.528137 185.274841,346.880096 178.945847,346.566895 
z"/>
<path fill="#000000" opacity="1.000000" stroke="none" 
	d="
M353.349762,429.905975 
	C353.352539,437.027161 353.352539,437.027161 357.430084,442.417603 
	C352.552246,444.044983 347.947540,443.286255 342.549316,443.044800 
	C347.887085,435.330505 344.753448,427.364258 344.830109,419.495026 
	C341.326111,427.365692 337.822113,435.236389 333.880981,444.089020 
	C328.215454,436.969238 327.306335,428.572784 322.761536,421.916687 
	C323.269897,428.724945 319.523407,436.088562 326.501282,442.192444 
	C322.134949,444.108490 318.317810,443.386810 314.808441,442.990845 
	C318.622223,431.739960 321.226257,420.770233 315.210297,409.422150 
	C320.050751,406.512115 326.898468,408.452789 328.943756,413.796875 
	C330.832794,418.732635 332.184814,423.903046 335.367310,428.781769 
	C338.681824,424.824371 339.768677,420.107147 341.651123,415.828644 
	C345.229248,407.696259 345.455780,407.493652 354.969177,409.340088 
	C350.985199,415.792816 354.181122,422.727417 353.349762,429.905975 
z"/>
<path fill="#000000" opacity="1.000000" stroke="none" 
	d="
M131.264526,345.426208 
	C137.466904,339.657013 144.613007,339.983887 151.751907,341.292816 
	C155.508881,341.981628 157.924072,348.585205 155.906509,352.002441 
	C154.522980,354.345795 152.841888,353.679443 151.842087,351.596558 
	C150.721664,349.262329 149.323822,347.213593 146.984192,346.104675 
	C143.722214,344.558594 140.854980,345.124725 138.682632,348.221649 
	C136.364700,351.526093 137.903595,354.029022 140.643402,355.790466 
	C143.132904,357.390961 145.976166,358.460266 148.709473,359.658875 
	C156.860565,363.233154 160.618301,369.178680 159.156586,376.302429 
	C157.594208,383.916840 151.462082,388.388184 142.563248,388.378418 
	C140.732819,388.376404 138.881790,388.466797 137.075623,388.236847 
	C129.244476,387.239899 126.500175,382.960602 128.671356,375.366547 
	C128.911575,374.526367 129.114609,373.727814 130.111893,373.614807 
	C130.989517,373.515289 131.763260,373.814758 132.180099,374.656677 
	C132.917175,376.145355 133.520294,377.708221 134.349106,379.141998 
	C136.284363,382.489960 139.105301,384.269623 143.071899,383.362335 
	C146.730743,382.525421 149.824219,380.520691 150.239792,376.632629 
	C150.636307,372.922974 147.909958,370.584137 144.801346,368.997894 
	C141.840073,367.486755 138.702759,366.307861 135.796021,364.705078 
	C128.220428,360.527924 126.411201,353.141510 131.264526,345.426208 
z"/>
<path fill="#000000" opacity="1.000000" stroke="none" 
	d="
M268.895813,388.277222 
	C242.888687,388.336517 239.039993,363.220673 247.652328,349.689575 
	C252.584213,341.940948 260.480713,340.169281 268.947906,340.140594 
	C271.753662,340.131104 274.598236,340.536682 277.360870,341.079193 
	C283.382843,342.261719 285.215698,345.082306 284.148193,350.962616 
	C283.925079,352.191589 283.603973,353.265381 282.186096,353.478088 
	C281.019012,353.653137 280.290833,352.945679 279.844910,352.000641 
	C276.816620,345.582886 271.397705,344.280426 265.179260,345.615265 
	C259.358856,346.864685 254.691467,353.360535 254.218521,360.273193 
	C253.842865,365.764038 253.772202,371.181458 256.506165,376.337250 
	C259.050171,381.134796 262.938873,383.533905 268.130646,383.532440 
	C273.318542,383.531006 277.372009,381.182007 279.784576,376.359894 
	C280.537933,374.854187 280.653595,372.272430 283.268677,373.027039 
	C285.857300,373.774017 284.634521,375.989655 284.470154,377.691101 
	C283.754608,385.096710 282.708923,386.188507 275.263245,387.368195 
	C273.292725,387.680420 271.317810,387.964844 268.895813,388.277222 
z"/>
<path fill="#000000" opacity="1.000000" stroke="none" 
	d="
M291.196075,351.669067 
	C289.954529,340.348694 289.959351,340.269073 300.544220,340.909607 
	C310.275726,341.498444 320.009491,342.850281 329.420532,339.829895 
	C331.201508,341.722656 331.229248,343.771118 331.192200,345.724792 
	C331.153473,347.767761 332.341278,350.573273 329.872284,351.585419 
	C327.310852,352.635468 327.066437,349.440918 325.761963,348.164673 
	C323.445404,345.898315 320.606171,344.882690 317.574524,345.802155 
	C314.635834,346.693420 315.391083,349.570129 315.375336,351.798523 
	C315.315460,360.277435 315.469727,368.759460 315.292816,377.235077 
	C315.224152,380.524841 316.062744,382.704834 319.501648,383.446655 
	C320.581909,383.679718 321.975861,383.877411 321.885345,385.476776 
	C321.778564,387.364807 320.225647,387.326141 318.933228,387.338501 
	C313.613586,387.389435 308.292969,387.388275 302.973267,387.340271 
	C301.864258,387.330261 300.487427,387.451630 300.109192,385.966431 
	C299.728149,384.470184 300.742645,383.884430 301.992218,383.611084 
	C305.275085,382.892914 305.897797,380.520691 305.953186,377.605011 
	C306.111115,369.297668 306.446655,360.993256 306.551575,352.685669 
	C306.583038,350.196289 307.687378,346.859558 304.145935,345.878723 
	C300.632050,344.905518 297.710114,346.526184 295.438293,349.333923 
	C294.402344,350.614258 294.085083,353.089478 291.196075,351.669067 
z"/>
<path fill="#000000" opacity="1.000000" stroke="none" 
	d="
M277.635162,417.425842 
	C278.384247,413.643860 275.813843,411.985596 273.891266,410.148987 
	C274.826324,407.367004 276.789886,408.139923 278.517700,408.316559 
	C283.669464,408.843262 288.824158,408.675140 293.979126,408.403259 
	C295.698547,408.312622 298.098755,406.892700 298.839325,409.168823 
	C299.623779,411.579895 301.010193,414.580292 298.309784,416.742493 
	C296.775848,417.061676 296.153290,416.217468 295.622711,415.383942 
	C293.704285,412.370056 290.818329,411.574799 287.813171,412.842712 
	C284.828918,414.101807 286.167267,417.174500 286.085754,419.537262 
	C286.039459,420.877594 286.270966,422.290039 287.967743,422.626648 
	C289.363861,422.903595 290.578033,422.554413 291.556702,421.422272 
	C292.483795,420.349823 293.112701,418.436920 294.973236,419.160187 
	C297.018616,419.955261 296.376556,422.043488 296.215088,423.555511 
	C295.916504,426.351562 297.430023,429.551331 294.704895,431.984222 
	C294.116394,431.804413 293.504639,431.805206 293.221863,431.500671 
	C291.394531,429.532104 289.845520,425.664062 286.681030,428.081909 
	C283.841827,430.251190 284.893250,434.441040 285.859711,437.424316 
	C286.896515,440.624664 290.279388,439.831726 292.832062,439.294312 
	C295.555389,438.721008 297.503448,436.849518 298.865967,434.408661 
	C299.565674,433.155151 300.505585,432.191437 302.077576,432.817261 
	C303.740540,433.479309 303.340668,434.981232 303.190796,436.261963 
	C302.470673,442.415771 301.283295,443.420807 295.002869,443.408539 
	C288.100159,443.395050 281.197357,443.405426 272.776520,443.405426 
	C280.810303,434.965668 276.472534,426.048187 277.635162,417.425842 
z"/>
<path fill="#000000" opacity="1.000000" stroke="none" 
	d="
M54.244781,341.609741 
	C59.700176,342.351074 64.954651,340.051849 70.375771,342.679565 
	C62.812176,346.460785 65.282791,352.986206 65.071266,358.582794 
	C64.870781,363.887329 65.058685,369.210968 65.204819,374.522644 
	C65.305557,378.184509 64.159172,382.451508 69.276306,384.063019 
	C69.656319,384.182678 69.998589,385.171631 69.957397,385.726685 
	C69.865456,386.965820 68.798958,387.252045 67.781250,387.295959 
	C62.973042,387.503540 58.163189,387.678802 53.352608,387.821075 
	C52.342266,387.850952 51.243759,387.661072 50.856274,386.575592 
	C50.429028,385.378723 50.679989,384.248535 52.026455,383.708618 
	C54.455772,382.734558 54.868851,380.684875 54.925991,378.420654 
	C55.147949,369.625702 55.424355,360.831696 55.569958,352.035492 
	C55.616558,349.220276 55.323677,346.826904 52.221630,344.951447 
	C49.256935,343.159058 51.331814,341.882263 54.244781,341.609741 
z"/>
<path fill="#000000" opacity="1.000000" stroke="none" 
	d="
M218.815125,410.602783 
	C219.087067,411.993073 219.296310,412.987122 219.259933,413.972046 
	C219.207672,415.387848 219.786713,417.230438 217.936829,417.867096 
	C215.900497,418.567932 215.557846,416.535339 214.807770,415.384827 
	C213.755814,413.771393 212.526733,412.532104 210.496582,412.386627 
	C208.373535,412.234497 206.380569,412.523621 205.607224,414.855255 
	C204.929779,416.897766 205.914322,418.517120 207.664627,419.453583 
	C210.148453,420.782562 212.786011,421.820465 215.315033,423.069519 
	C220.188644,425.476440 222.514282,429.566193 221.781235,434.291382 
	C220.998413,439.337402 218.037018,442.311279 212.464554,443.243408 
	C209.883850,443.675079 207.337402,444.183075 204.579346,443.665924 
	C197.420547,442.323669 196.052536,440.011658 198.720734,432.412018 
	C201.227448,432.486450 201.672882,434.763489 202.607422,436.317169 
	C204.045609,438.708191 205.918182,439.916473 208.752808,439.640350 
	C211.179382,439.403961 212.835144,438.221741 213.474716,435.886414 
	C214.100601,433.601013 212.905472,431.950775 211.040604,430.923859 
	C208.864120,429.725342 206.458939,428.940491 204.289093,427.731842 
	C200.116943,425.407898 197.178848,422.150940 197.666397,416.975372 
	C198.143860,411.907074 201.648987,409.372864 206.100021,408.336304 
	C210.396851,407.335663 214.967789,406.249268 218.815125,410.602783 
z"/>
<path fill="#000000" opacity="1.000000" stroke="none" 
	d="
M137.070145,436.218994 
	C138.222610,431.816437 135.042191,430.748291 132.388000,429.528961 
	C129.209824,428.068909 125.932793,426.918549 123.736580,423.911255 
	C119.675072,418.349792 121.275551,411.777985 127.505844,408.984344 
	C131.297592,407.284180 135.270569,407.218475 139.229858,408.151428 
	C142.872070,409.009644 144.750061,413.592865 142.874588,416.769043 
	C142.050400,418.164825 140.914429,418.589355 139.661301,417.272736 
	C139.098343,416.681244 138.688095,415.933075 138.263809,415.222931 
	C136.790634,412.757294 134.625977,411.856873 131.897705,412.584503 
	C130.301605,413.010193 129.402588,414.221649 129.411453,415.921112 
	C129.425964,418.701935 131.330734,419.967194 133.563538,420.948639 
	C135.841263,421.949768 138.209595,422.795197 140.363419,424.016998 
	C144.456848,426.339050 146.015808,430.098206 145.167358,434.606506 
	C144.285461,439.292542 141.288834,442.307251 136.568161,443.183990 
	C134.309845,443.603455 131.930359,443.576080 129.619064,443.467560 
	C121.335411,443.078674 119.746567,440.465027 122.923920,431.772980 
	C126.997208,435.260010 129.222443,445.166534 137.070145,436.218994 
z"/>
<path fill="#000000" opacity="1.000000" stroke="none" 
	d="
M157.012634,408.141602 
	C161.130814,409.511230 165.259033,406.595184 169.172913,409.167938 
	C164.483994,415.192963 170.944168,417.687469 172.425247,422.094391 
	C178.706573,415.180145 178.933945,414.038177 174.607269,409.604431 
	C179.511749,406.892639 184.389023,409.092377 189.350464,408.597992 
	C184.478256,413.519470 180.913162,418.908051 177.484299,424.400787 
	C173.961304,430.044312 174.458313,436.052887 179.694839,442.764130 
	C173.744980,443.628754 168.511597,443.763580 162.813156,442.650055 
	C169.095367,433.977417 169.128433,431.860321 163.046829,422.180420 
	C160.606262,418.295868 159.109222,413.851501 155.021866,410.936310 
	C152.529739,409.158844 154.758987,408.352631 157.012634,408.141602 
z"/>
<path fill="#000000" opacity="1.000000" stroke="none" 
	d="
M242.160995,412.849243 
	C239.534683,413.189484 237.840210,414.417755 236.494995,416.242737 
	C235.859482,417.104889 234.967148,417.547302 233.881271,417.150116 
	C232.704025,416.719513 232.798019,415.640503 232.695297,414.655823 
	C232.160263,409.527374 233.654007,408.422150 238.922028,408.495667 
	C246.677551,408.603912 254.508469,409.608154 262.329102,407.186768 
	C263.839417,410.526001 263.774841,413.637970 263.074036,416.711761 
	C260.817841,417.665894 260.162079,416.048218 259.219879,414.971710 
	C257.805267,413.355347 255.886551,412.355194 253.911789,412.933868 
	C251.600113,413.611298 252.410812,415.986633 252.371109,417.696655 
	C252.270691,422.022644 252.494186,426.359680 252.297058,430.679016 
	C252.100098,434.994537 252.244431,439.086029 257.740662,442.415009 
	C250.885910,443.844055 245.927414,443.445831 239.842682,442.979340 
	C248.006180,434.982452 243.517380,425.700439 244.601669,417.234619 
	C244.819382,415.534851 245.089630,413.395721 242.160995,412.849243 
z"/>
</svg>